<svg width="237" height="236" viewBox="0 0 237 236" fill="none" xmlns="http://www.w3.org/2000/svg">
<path d="M118.502 0V235.035" stroke="black" stroke-width="2" stroke-miterlimit="10"/>
<path d="M141.196 2.2124L95.8091 232.823" stroke="black" stroke-width="2" stroke-miterlimit="10"/>
<path d="M163.034 8.76367L73.9695 226.271" stroke="black" stroke-width="2" stroke-miterlimit="10"/>
<path d="M183.197 19.4102L53.8079 215.624" stroke="black" stroke-width="2" stroke-miterlimit="10"/>
<path d="M200.924 33.7495L36.0798 201.285" stroke="black" stroke-width="2" stroke-miterlimit="10"/>
<path d="M215.549 51.2432L21.4563 183.792" stroke="black" stroke-width="2" stroke-miterlimit="10"/>
<path d="M226.52 71.2285L10.4849 163.804" stroke="black" stroke-width="2" stroke-miterlimit="10"/>
<path d="M233.425 92.9609L3.57837 142.077" stroke="black" stroke-width="2" stroke-miterlimit="10"/>
<path d="M236.005 115.615L1 119.421" stroke="black" stroke-width="2" stroke-miterlimit="10"/>
<path d="M234.161 138.342L2.84424 96.6948" stroke="black" stroke-width="2" stroke-miterlimit="10"/>
<path d="M227.962 160.284L9.0415 74.7529" stroke="black" stroke-width="2" stroke-miterlimit="10"/>
<path d="M217.645 180.615L19.3606 54.4185" stroke="black" stroke-width="2" stroke-miterlimit="10"/>
<path d="M203.594 198.572L33.4114 36.4634" stroke="black" stroke-width="2" stroke-miterlimit="10"/>
<path d="M186.34 213.479L50.665 21.5571" stroke="black" stroke-width="2" stroke-miterlimit="10"/>
<path d="M166.533 224.772L70.4722 10.2646" stroke="black" stroke-width="2" stroke-miterlimit="10"/>
<path d="M144.917 232.029L92.0872 3.00781" stroke="black" stroke-width="2" stroke-miterlimit="10"/>
</svg>
