<svg width="155" height="148" viewBox="0 0 155 148" fill="none" xmlns="http://www.w3.org/2000/svg">
<path d="M68.4985 21.4106H127.224C141.598 21.4106 153.27 33.0801 153.27 47.4568V85.1587H42.4551V47.4568C42.4551 33.0828 54.1245 21.4106 68.5012 21.4106H68.4985Z" fill="#2B4DFF"/>
<path d="M68.4985 21.4106C82.8724 21.4106 94.5446 33.0801 94.5446 47.4568V85.1587H42.4551V47.4568C42.4551 33.0828 54.1245 21.4106 68.5012 21.4106H68.4985Z" fill="black"/>
<path d="M90.4497 136.502V85.1548H105.275V147.766" stroke="white" stroke-width="2" stroke-miterlimit="10"/>
<path d="M68.4985 21.4106H127.224C141.598 21.4106 153.27 33.0801 153.27 47.4568V85.1587H42.4551V47.4568C42.4551 33.0828 54.1245 21.4106 68.5012 21.4106H68.4985Z" stroke="white" stroke-width="2" stroke-miterlimit="10"/>
<path d="M0.759033 85.1548H63.0243" stroke="white" stroke-width="2" stroke-miterlimit="10"/>
<path d="M110.464 45.4996V1.76562H127.882V12.8855L110.464 13.2555" stroke="white" stroke-width="2" stroke-miterlimit="10"/>
<path d="M68.4985 21.4106C82.8724 21.4106 94.5446 33.0801 94.5446 47.4568V85.1587H42.4551V47.4568C42.4551 33.0828 54.1245 21.4106 68.5012 21.4106H68.4985Z" stroke="white" stroke-width="2" stroke-miterlimit="10"/>
</svg>
