<svg width="95" height="76" viewBox="0 0 95 76" fill="none" xmlns="http://www.w3.org/2000/svg">
<path d="M0 75H94.3549" stroke="white" stroke-width="2" stroke-miterlimit="10"/>
<path d="M23.4938 50.972H9.23535V75H23.4938V50.972Z" stroke="white" stroke-width="2" stroke-miterlimit="10"/>
<path d="M44.0358 43.4976H29.7773V75H44.0358V43.4976Z" stroke="white" stroke-width="2" stroke-miterlimit="10"/>
<path d="M64.5768 26.7501H50.3184V75H64.5768V26.7501Z" stroke="white" stroke-width="2" stroke-miterlimit="10"/>
<path d="M85.1188 16.0922H70.8604V75H85.1188V16.0922Z" stroke="white" stroke-width="2" stroke-miterlimit="10"/>
<path d="M16.6768 43.4976L37.2183 31.8069L57.7603 13.2142L78.3024 4.63269" stroke="white" stroke-width="2" stroke-miterlimit="10"/>
<path d="M20.4942 42.9531C20.4942 44.5574 19.1937 45.8579 17.5894 45.8579C15.9851 45.8579 14.6846 44.5574 14.6846 42.9531C14.6846 41.3488 15.9851 40.0483 17.5894 40.0483C19.1937 40.0483 20.4942 41.3488 20.4942 42.9531Z" fill="black" stroke="white" stroke-width="2"/>
<path d="M41.0352 31.2386C41.0352 32.8429 39.7347 34.1435 38.1304 34.1435C36.5261 34.1435 35.2256 32.8429 35.2256 31.2386C35.2256 29.6343 36.5261 28.3338 38.1304 28.3338C39.7347 28.3338 41.0352 29.6343 41.0352 31.2386Z" fill="black" stroke="white" stroke-width="2"/>
<path d="M60.6827 13.6669C60.6827 15.2712 59.3822 16.5717 57.7779 16.5717C56.1736 16.5717 54.873 15.2712 54.873 13.6669C54.873 12.0626 56.1736 10.7621 57.7779 10.7621C59.3822 10.7621 60.6827 12.0626 60.6827 13.6669Z" fill="black" stroke="white" stroke-width="2"/>
<path d="M82.1192 3.90483C82.1192 5.50912 80.8187 6.80965 79.2144 6.80965C77.6101 6.80965 76.3096 5.50912 76.3096 3.90483C76.3096 2.30054 77.6101 1 79.2144 1C80.8187 1 82.1192 2.30054 82.1192 3.90483Z" fill="black" stroke="white" stroke-width="2"/>
</svg>
