<svg width="131" height="77" viewBox="0 0 131 77" fill="none" xmlns="http://www.w3.org/2000/svg">
<path d="M33.9026 5.5965H29.49C28.5247 5.5965 27.7024 6.29449 27.5461 7.24647L26.3916 14.2708C24.9095 14.7317 23.4868 15.3285 22.1344 16.0416L16.292 11.8971C15.507 11.3421 14.4386 11.4318 13.7584 12.112L7.51552 18.3531C6.83795 19.0316 6.74826 20.0999 7.30239 20.8867L11.4477 26.7318C10.7346 28.0842 10.1397 29.5051 9.677 30.9872L2.64908 32.1426C1.69711 32.2988 1 33.1212 1 34.0865V42.9135C1 43.8788 1.69711 44.7012 2.64908 44.8575L9.677 46.0128C10.1388 47.494 10.7373 48.914 11.4477 50.2665L7.30239 56.1115C6.74648 56.8966 6.83617 57.9649 7.51552 58.6451L13.7566 64.8862C14.436 65.5656 15.507 65.6561 16.2902 65.1011L22.1326 60.9567C23.4744 61.6626 24.8811 62.255 26.3481 62.715L27.5469 69.7642C27.7095 70.7108 28.53 71.4035 29.4909 71.4035H33.9035" stroke="white" stroke-width="2" stroke-linecap="round" stroke-linejoin="round"/>
<path d="M108.353 1H38.4828C35.9531 1 33.9023 3.05076 33.9023 5.58049V17.8709C33.9023 20.4006 35.9531 22.4514 38.4828 22.4514H108.353C110.883 22.4514 112.934 20.4006 112.934 17.8709V5.58049C112.934 3.05076 110.883 1 108.353 1Z" stroke="white" stroke-width="2" stroke-linecap="round" stroke-linejoin="round"/>
<path d="M47.0472 17.1694C50.0536 17.1694 52.4908 14.7322 52.4908 11.7257C52.4908 8.71925 50.0536 6.28204 47.0472 6.28204C44.0407 6.28204 41.6035 8.71925 41.6035 11.7257C41.6035 14.7322 44.0407 17.1694 47.0472 17.1694Z" stroke="white" stroke-width="2" stroke-linecap="round" stroke-linejoin="round"/>
<path d="M62.2474 17.1694C65.2538 17.1694 67.691 14.7322 67.691 11.7257C67.691 8.71925 65.2538 6.28204 62.2474 6.28204C59.2409 6.28204 56.8037 8.71925 56.8037 11.7257C56.8037 14.7322 59.2409 17.1694 62.2474 17.1694Z" stroke="white" stroke-width="2" stroke-linecap="round" stroke-linejoin="round"/>
<path d="M105.232 11.7257H77.3701" stroke="white" stroke-width="2" stroke-linecap="round" stroke-linejoin="round"/>
<path d="M47.0472 43.9437C50.0536 43.9437 52.4908 41.5065 52.4908 38.5001C52.4908 35.4936 50.0536 33.0564 47.0472 33.0564C44.0407 33.0564 41.6035 35.4936 41.6035 38.5001C41.6035 41.5065 44.0407 43.9437 47.0472 43.9437Z" stroke="white" stroke-width="2" stroke-linecap="round" stroke-linejoin="round"/>
<path d="M62.2474 43.9437C65.2538 43.9437 67.691 41.5065 67.691 38.5001C67.691 35.4936 65.2538 33.0564 62.2474 33.0564C59.2409 33.0564 56.8037 35.4936 56.8037 38.5001C56.8037 41.5065 59.2409 43.9437 62.2474 43.9437Z" stroke="white" stroke-width="2" stroke-linecap="round" stroke-linejoin="round"/>
<path d="M105.232 38.5H77.3701" stroke="white" stroke-width="2" stroke-linecap="round" stroke-linejoin="round"/>
<path d="M108.353 54.5486H38.4828C35.9531 54.5486 33.9023 56.5994 33.9023 59.1291V71.4195C33.9023 73.9493 35.9531 76 38.4828 76H108.353C110.883 76 112.934 73.9493 112.934 71.4195V59.1291C112.934 56.5994 110.883 54.5486 108.353 54.5486Z" stroke="white" stroke-width="2" stroke-linecap="round" stroke-linejoin="round"/>
<path d="M47.0472 70.718C50.0536 70.718 52.4908 68.2808 52.4908 65.2743C52.4908 62.2679 50.0536 59.8307 47.0472 59.8307C44.0407 59.8307 41.6035 62.2679 41.6035 65.2743C41.6035 68.2808 44.0407 70.718 47.0472 70.718Z" stroke="white" stroke-width="2" stroke-linecap="round" stroke-linejoin="round"/>
<path d="M62.2474 70.718C65.2538 70.718 67.691 68.2808 67.691 65.2743C67.691 62.2679 65.2538 59.8307 62.2474 59.8307C59.2409 59.8307 56.8037 62.2679 56.8037 65.2743C56.8037 68.2808 59.2409 70.718 62.2474 70.718Z" stroke="white" stroke-width="2" stroke-linecap="round" stroke-linejoin="round"/>
<path d="M105.232 65.2742H77.3701" stroke="white" stroke-width="2" stroke-linecap="round" stroke-linejoin="round"/>
<path d="M105.233 22.4514H45.999V27.7743H105.233V22.4514Z" stroke="white" stroke-width="2" stroke-linecap="round" stroke-linejoin="round"/>
<path d="M105.233 49.2257H45.999V54.5486H105.233V49.2257Z" stroke="white" stroke-width="2" stroke-linecap="round" stroke-linejoin="round"/>
<path d="M33.9026 5.5965H29.49C28.5247 5.5965 27.7024 6.29449 27.5461 7.24647L26.3916 14.2708C24.9095 14.7317 23.4868 15.3285 22.1344 16.0416L16.292 11.8971C15.507 11.3421 14.4386 11.4318 13.7584 12.112L7.51552 18.3531C6.83795 19.0316 6.74826 20.0999 7.30239 20.8867L11.4477 26.7318C10.7346 28.0842 10.1397 29.5051 9.677 30.9872L2.64908 32.1426C1.69711 32.2988 1 33.1212 1 34.0865V42.9135C1 43.8788 1.69711 44.7012 2.64908 44.8575L9.677 46.0128C10.1388 47.494 10.7373 48.914 11.4477 50.2665L7.30239 56.1115C6.74648 56.8966 6.83617 57.9649 7.51552 58.6451L13.7566 64.8862C14.436 65.5656 15.507 65.6561 16.2902 65.1011L22.1326 60.9567C23.4744 61.6626 24.8811 62.255 26.3481 62.715L27.5469 69.7642C27.7095 70.7108 28.53 71.4035 29.4909 71.4035H33.9035" stroke="white" stroke-width="2" stroke-linecap="round" stroke-linejoin="round"/>
<path d="M45.9197 49.2257H32.6134C26.6893 49.2257 21.8877 44.4232 21.8877 38.5C21.8877 32.5759 26.6902 27.7743 32.6134 27.7743H45.9197" stroke="white" stroke-width="2" stroke-linecap="round" stroke-linejoin="round"/>
<path d="M105.232 27.7743H118.539C124.463 27.7743 129.264 32.5768 129.264 38.5C129.264 44.4241 124.462 49.2257 118.539 49.2257H105.232" stroke="white" stroke-width="2" stroke-linecap="round" stroke-linejoin="round"/>
</svg>
