<svg width="91" height="77" viewBox="0 0 91 77" fill="none" xmlns="http://www.w3.org/2000/svg">
<path d="M24.4014 76H66.5485" stroke="white" stroke-width="2" stroke-linecap="round" stroke-linejoin="round"/>
<path d="M56.8147 61.2578H34.1348V76H56.8147V61.2578Z" stroke="white" stroke-width="2" stroke-linecap="round" stroke-linejoin="round"/>
<path d="M86.6017 1H4.34814C2.49902 1 1 2.49902 1 4.34814V57.9096C1 59.7587 2.49902 61.2578 4.34814 61.2578H86.6017C88.4508 61.2578 89.9498 59.7587 89.9498 57.9096V4.34814C89.9498 2.49902 88.4508 1 86.6017 1Z" stroke="white" stroke-width="2" stroke-linecap="round" stroke-linejoin="round"/>
<path d="M58.1383 38.147H50.9092V49.3454H58.1383V38.147Z" stroke="white" stroke-width="2" stroke-linecap="round" stroke-linejoin="round"/>
<path d="M70.4166 32.3352H63.1875V49.3454H70.4166V32.3352Z" stroke="white" stroke-width="2" stroke-linecap="round" stroke-linejoin="round"/>
<path d="M82.6969 25.7643H75.4678V49.3454H82.6969V25.7643Z" stroke="white" stroke-width="2" stroke-linecap="round" stroke-linejoin="round"/>
<path d="M54.332 11.3954H76.1625" stroke="white" stroke-width="2" stroke-linecap="round" stroke-linejoin="round"/>
<path d="M54.332 16.5931H67.8461" stroke="white" stroke-width="2" stroke-linecap="round" stroke-linejoin="round"/>
<path d="M24.4012 33.8945H40.9859C40.9859 42.9925 33.4992 50.4792 24.4012 50.4792C20.359 50.4792 16.4531 49.0015 13.4229 46.3256L24.4012 33.8945Z" stroke="white" stroke-width="2" stroke-linecap="round" stroke-linejoin="round"/>
<path d="M24.402 33.8946L40.9866 33.7926C40.9866 33.8264 40.9866 33.8608 40.9866 33.8946C40.9866 42.9926 33.5 50.4792 24.402 50.4792C15.304 50.4792 7.81738 42.9926 7.81738 33.8946C7.81738 29.113 9.88558 24.5573 13.485 21.4094L24.402 33.8946Z" stroke="white" stroke-width="2" stroke-linecap="round" stroke-linejoin="round"/>
<path d="M26.4173 28.5779L13.79 14.0324C17.2927 10.9917 21.7788 9.31635 26.4173 9.31635C36.9638 9.31635 45.6497 17.9778 45.6788 28.5243L26.4173 28.5779Z" stroke="white" stroke-width="2" stroke-linecap="round" stroke-linejoin="round"/>
<path d="M47.9141 49.3454H85.6901" stroke="white" stroke-width="2" stroke-linecap="round" stroke-linejoin="round"/>
</svg>
