<svg width="85" height="78" viewBox="0 0 85 78" fill="none" xmlns="http://www.w3.org/2000/svg">
<path d="M36.489 1H7.02082C3.69561 1 1 3.69561 1 7.02082V70.1462C1 73.4714 3.69561 76.167 7.02082 76.167H36.489C39.8142 76.167 42.5098 73.4714 42.5098 70.1462V7.02082C42.5098 3.69561 39.8142 1 36.489 1Z" stroke="white" stroke-width="2" stroke-linecap="round" stroke-linejoin="round"/>
<path d="M15.0244 5.57581H28.4856" stroke="white" stroke-width="2" stroke-linecap="round" stroke-linejoin="round"/>
<path d="M12.9356 17.1239H7.0177C6.20808 17.1239 5.55176 17.7802 5.55176 18.5898V24.5078C5.55176 25.3174 6.20808 25.9737 7.0177 25.9737H12.9356C13.7453 25.9737 14.4016 25.3174 14.4016 24.5078V18.5898C14.4016 17.7802 13.7453 17.1239 12.9356 17.1239Z" stroke="white" stroke-width="2" stroke-linecap="round" stroke-linejoin="round"/>
<path d="M12.9356 29.7334H7.0177C6.20808 29.7334 5.55176 30.3897 5.55176 31.1993V37.1173C5.55176 37.9269 6.20808 38.5832 7.0177 38.5832H12.9356C13.7453 38.5832 14.4016 37.9269 14.4016 37.1173V31.1993C14.4016 30.3897 13.7453 29.7334 12.9356 29.7334Z" stroke="white" stroke-width="2" stroke-linecap="round" stroke-linejoin="round"/>
<path d="M24.7452 17.1239H18.8273C18.0177 17.1239 17.3613 17.7802 17.3613 18.5898V24.5078C17.3613 25.3174 18.0177 25.9737 18.8273 25.9737H24.7452C25.5548 25.9737 26.2111 25.3174 26.2111 24.5078V18.5898C26.2111 17.7802 25.5548 17.1239 24.7452 17.1239Z" stroke="white" stroke-width="2" stroke-linecap="round" stroke-linejoin="round"/>
<path d="M36.4923 17.1239H30.5743C29.7647 17.1239 29.1084 17.7802 29.1084 18.5898V24.5078C29.1084 25.3174 29.7647 25.9737 30.5743 25.9737H36.4923C37.3019 25.9737 37.9582 25.3174 37.9582 24.5078V18.5898C37.9582 17.7802 37.3019 17.1239 36.4923 17.1239Z" stroke="white" stroke-width="2" stroke-linecap="round" stroke-linejoin="round"/>
<path d="M56.5858 30H20.4142C19.0809 30 18 31.0545 18 32.3553V67.6447C18 68.9455 19.0809 70 20.4142 70H56.5858C57.9191 70 59 68.9455 59 67.6447V32.3553C59 31.0545 57.9191 30 56.5858 30Z" fill="black" stroke="white" stroke-width="2" stroke-linecap="round" stroke-linejoin="round"/>
<path d="M52.2731 47.2943L49.1773 46.8033C48.9739 46.1723 48.7112 45.567 48.3973 44.9915L50.2234 42.5052C50.4683 42.1714 50.4285 41.7163 50.1287 41.4277L47.3786 38.7715C47.0797 38.4829 46.6084 38.4453 46.2627 38.681L43.6868 40.445C43.0907 40.1419 42.4647 39.8883 41.8112 39.6919L41.3018 36.7018C41.2329 36.2963 40.8703 36 40.445 36H36.555C36.1297 36 35.7671 36.2963 35.6982 36.7018L35.1888 39.6919C34.5362 39.8883 33.9101 40.1427 33.3141 40.445L30.7382 38.681C30.3925 38.4445 29.9211 38.4829 29.6223 38.7715L26.8721 41.4268C26.5724 41.7163 26.5326 42.1714 26.7775 42.5044L28.6036 44.9907C28.2923 45.561 28.0314 46.1604 27.8289 46.7845L24.7225 47.2943C24.3051 47.3634 24 47.7126 24 48.1216V51.8767C24 52.2857 24.3051 52.6349 24.7225 52.7032L27.8289 53.2138C28.0332 53.8447 28.2976 54.4492 28.6124 55.023L26.7802 57.4888C26.5317 57.8227 26.5706 58.2803 26.8721 58.5706L29.6223 61.226C29.7903 61.389 30.0131 61.4719 30.2368 61.4719C30.4128 61.4719 30.5905 61.4198 30.7426 61.3148L33.2973 59.5448C33.8925 59.8488 34.5185 60.1032 35.1702 60.3004L35.699 63.3016C35.7707 63.7046 36.1315 64 36.555 64H40.445C40.8685 64 41.2302 63.7054 41.301 63.3016L41.8298 60.3004C42.4824 60.104 43.1084 59.8488 43.7036 59.5448L46.2574 61.3148C46.4095 61.4198 46.5872 61.4719 46.7632 61.4719C46.9869 61.4719 47.2097 61.3882 47.3777 61.226L50.1279 58.5706C50.4285 58.2803 50.4674 57.8227 50.2198 57.4888L48.3876 55.023C48.705 54.4433 48.9721 53.8319 49.1773 53.195L52.2731 52.704C52.6932 52.6374 53 52.2865 53 51.8767V48.1216C53 47.7109 52.6923 47.3609 52.2731 47.2943Z" stroke="white" stroke-width="2" stroke-linecap="round" stroke-linejoin="round"/>
<path d="M38.5 55C40.9853 55 43 52.7614 43 50C43 47.2386 40.9853 45 38.5 45C36.0147 45 34 47.2386 34 50C34 52.7614 36.0147 55 38.5 55Z" stroke="white" stroke-width="2" stroke-linecap="round" stroke-linejoin="round"/>
<path d="M51.9973 36.2973C61.7023 33.3284 72.2802 38.1098 76.4698 47.8021C80.6593 57.4944 76.9811 68.675 68.281 73.9688" stroke="white" stroke-width="2" stroke-linecap="round" stroke-linejoin="round"/>
<path d="M54.3105 31.9276L50.9201 35.9906L54.9071 39.4456" stroke="white" stroke-width="2" stroke-linecap="round" stroke-linejoin="round"/>
</svg>
