<svg width="68" height="78" viewBox="0 0 68 78" fill="none" xmlns="http://www.w3.org/2000/svg">
<path d="M37.378 1H5.29569C2.92325 1 1 2.92325 1 5.29569V71.9083C1 74.2808 2.92325 76.204 5.29569 76.204H37.378C39.7505 76.204 41.6737 74.2808 41.6737 71.9083V5.29569C41.6737 2.92325 39.7505 1 37.378 1Z" stroke="white" stroke-width="2" stroke-linecap="round" stroke-linejoin="round"/>
<path d="M12.4297 5H30.244" stroke="white" stroke-width="2" stroke-linecap="round" stroke-linejoin="round"/>
<path d="M41 65C55.3594 65 67 53.3594 67 39C67 24.6406 55.3594 13 41 13C26.6406 13 15 24.6406 15 39C15 53.3594 26.6406 65 41 65Z" fill="black" stroke="white" stroke-width="2" stroke-linecap="round" stroke-linejoin="round"/>
<path d="M24 58.5V46H31V63" stroke="white" stroke-width="2" stroke-linecap="round" stroke-linejoin="round"/>
<path d="M36 64V34H46V63.9668" stroke="white" stroke-width="2" stroke-linecap="round" stroke-linejoin="round"/>
<path d="M51 62.5V27.5H60V56.5" stroke="white" stroke-width="2" stroke-linecap="round" stroke-linejoin="round"/>
</svg>
