<svg width="77" height="77" viewBox="0 0 77 77" fill="none" xmlns="http://www.w3.org/2000/svg">
<path d="M3.89547 52.7633C2.03097 48.3218 1 43.4432 1 38.3242C1 17.711 17.711 1 38.325 1C50.9191 1 62.0561 7.23735 68.8156 16.7916" stroke="white" stroke-width="2" stroke-linecap="round" stroke-linejoin="round"/>
<path d="M72.3898 23.0454C74.4845 27.7094 75.6505 32.8806 75.6505 38.3251C75.6505 58.9391 58.9395 75.6501 38.3255 75.6501C26.5672 75.6501 16.0787 70.2127 9.23732 61.7151C8.28049 60.5265 7.39468 59.2778 6.58691 57.9752" stroke="white" stroke-width="2" stroke-linecap="round" stroke-linejoin="round"/>
<path d="M5.32031 67.6676L6.36221 57.8628L16.1615 58.9539" stroke="white" stroke-width="2" stroke-linecap="round" stroke-linejoin="round"/>
<path d="M69.9215 7.08752L68.8804 16.8931L59.0811 15.8012" stroke="white" stroke-width="2" stroke-linecap="round" stroke-linejoin="round"/>
<path d="M60.3692 33.8413L55.4141 33.0273C55.0895 31.9815 54.668 30.9786 54.1654 30.0241L57.0882 25.9025C57.48 25.3484 57.416 24.5953 56.9368 24.1153L52.5351 19.712C52.0566 19.2344 51.3027 19.1704 50.7478 19.5614L46.6247 22.485C45.671 21.9823 44.6689 21.5617 43.6231 21.2362L42.8083 16.2788C42.6983 15.6069 42.1184 15.1152 41.4371 15.1152H35.2106C34.5301 15.1152 33.9494 15.6069 33.8394 16.2788L33.0238 21.2362C31.9796 21.5617 30.9775 21.9839 30.023 22.485L25.8999 19.5614C25.3465 19.1688 24.5926 19.2328 24.1126 19.712L19.7109 24.1138C19.2317 24.593 19.1677 25.3484 19.5595 25.901L22.4823 30.0225C21.9844 30.9684 21.566 31.9612 21.2422 32.9961L16.2699 33.8413C15.6018 33.956 15.1133 34.5343 15.1133 35.2125V41.4374C15.1133 42.1156 15.6018 42.6939 16.2699 42.8071L21.2429 43.6539C21.5692 44.6997 21.9929 45.701 22.4971 46.6539L19.5642 50.7411C19.1669 51.2945 19.2294 52.0531 19.7109 52.5346L24.1126 56.9363C24.3819 57.2064 24.7378 57.3445 25.096 57.3445C25.3785 57.3445 25.6618 57.2579 25.9053 57.0839L29.9941 54.1494C30.9463 54.6535 31.9484 55.0758 32.9926 55.4028L33.8386 60.3774C33.9526 61.0462 34.5309 61.5348 35.2091 61.5348H41.4355C42.1137 61.5348 42.692 61.0462 42.806 60.3774L43.652 55.4028C44.697 55.0773 45.6983 54.6535 46.6513 54.1494L50.7393 57.0839C50.9828 57.2579 51.2668 57.3445 51.5486 57.3445C51.9068 57.3445 52.2627 57.2064 52.5319 56.9363L56.9337 52.5346C57.4152 52.0539 57.4777 51.2953 57.0804 50.7411L54.1475 46.6539C54.6563 45.6924 55.0825 44.6794 55.4118 43.6227L60.3669 42.8087C61.0381 42.6986 61.5313 42.1172 61.5313 41.4374V35.2125C61.5313 34.5312 61.0388 33.9513 60.3669 33.8413H60.3692Z" stroke="white" stroke-width="2" stroke-linecap="round" stroke-linejoin="round"/>
<path d="M38.3247 44.8746C42.6958 44.8746 46.2392 41.3312 46.2392 36.9601C46.2392 32.589 42.6958 29.0455 38.3247 29.0455C33.9536 29.0455 30.4102 32.589 30.4102 36.9601C30.4102 41.3312 33.9536 44.8746 38.3247 44.8746Z" stroke="white" stroke-width="2" stroke-linecap="round" stroke-linejoin="round"/>
<path d="M26.8506 56.348C26.8506 50.0107 31.9875 44.8738 38.3248 44.8738C44.662 44.8738 49.7989 50.0107 49.7989 56.348" stroke="white" stroke-width="2" stroke-linecap="round" stroke-linejoin="round"/>
</svg>
