<svg width="204" height="68" viewBox="0 0 204 68" fill="none" xmlns="http://www.w3.org/2000/svg">
<path d="M38.7604 31.3232C46.9032 27.9442 55.0463 24.5653 63.24 21.1655C63.1876 21.2569 63.1658 21.2988 63.1401 21.3387C62.3551 22.5805 61.5802 23.8282 60.782 25.0626C59.1999 27.5101 56.9228 29.2029 54.1618 30.3664C52.5616 31.0407 50.8883 31.3567 49.132 31.3521C45.756 31.3433 42.3799 31.3595 39.0038 31.3655C38.9243 31.3655 38.8448 31.3655 38.7653 31.3655C38.7634 31.3514 38.7623 31.3373 38.7604 31.3232Z" fill="white"/>
<path d="M29.5402 27.2853C25.4809 19.819 21.4213 12.3523 17.3401 4.8457C17.4151 4.87239 17.4416 4.87915 17.4651 4.8909C18.9457 5.61647 20.4462 6.30859 21.9029 7.07579C24.5132 8.45042 26.3699 10.5122 27.7051 13.0302C28.4587 14.4514 28.8493 15.9549 28.9429 17.5437C29.0932 20.0962 29.279 22.6465 29.4484 25.198C29.4943 25.8897 29.5364 26.5815 29.5801 27.2732C29.5667 27.2775 29.5532 27.2811 29.5402 27.2853Z" fill="white"/>
<path d="M25.4773 31.3652C17.3465 28.9831 9.21601 26.6013 1.02002 24.2002C1.08731 24.1736 1.10639 24.165 1.12618 24.1588C2.7168 23.6529 4.2923 23.0973 5.90127 22.6532C8.6467 21.8954 11.3745 22.1052 14.071 22.9472C15.6476 23.4393 16.9999 24.2727 18.2408 25.3141C20.6123 27.3046 23.0079 29.2685 25.3935 31.2437C25.4306 31.2744 25.4644 31.3083 25.5 31.3404C25.4925 31.3486 25.4853 31.3573 25.4777 31.3655L25.4773 31.3652Z" fill="white"/>
<path d="M7.15752 13.0062C7.66285 13.0407 8.16817 13.0734 8.67312 13.11C9.75504 13.1891 10.837 13.2685 11.9189 13.3504C13.6941 13.4851 15.3624 13.9794 16.9376 14.7603C18.8419 15.7047 20.5105 16.9333 21.8232 18.5749C22.4459 19.3541 22.8867 20.2342 23.3391 21.1082C24.7238 23.7848 26.1118 26.4596 27.498 29.1355C27.5258 29.189 27.5468 29.2461 27.5378 29.3259C20.7386 23.9033 13.9394 18.4812 7.13989 13.0587L7.15752 13.0062Z" fill="white"/>
<path d="M43.959 2.80566C44.5067 4.62037 45.1388 6.4158 45.5813 8.25488C46.1748 10.7206 45.8949 13.172 45.108 15.5741C44.5659 17.2284 43.6853 18.6769 42.4919 19.9617C40.2916 22.3307 38.118 24.724 35.9332 27.1067C35.871 27.1744 35.8073 27.2409 35.7 27.2857C38.4294 19.126 41.1588 10.966 43.8883 2.80639C43.9116 2.80639 43.9357 2.80566 43.959 2.80566Z" fill="white"/>
<path d="M37.7404 29.2969C43.5067 22.8465 49.2734 16.3962 55.0398 9.9458C55.0532 9.95086 55.0666 9.95556 55.08 9.96063C55.0409 10.3801 55.0037 10.7999 54.9617 11.219C54.8512 12.3237 54.7384 13.4281 54.6261 14.5328C54.4397 16.3669 53.8343 18.0711 52.893 19.6608C51.8247 21.4641 50.5013 23.0642 48.6811 24.1986C47.8663 24.7063 46.977 25.1073 46.1001 25.5134C43.3869 26.7703 40.6634 28.0063 37.9439 29.2502C37.8851 29.277 37.8248 29.3008 37.7653 29.3258C37.7567 29.3164 37.7485 29.3066 37.74 29.2972L37.7404 29.2969Z" fill="white"/>
<path d="M32.6799 27.2838C31.9867 18.4617 31.2934 9.63973 30.6001 0.817726C30.622 0.800484 30.6439 0.782867 30.6654 0.765625C30.6866 0.812104 30.6994 0.86608 30.7304 0.904312C31.7504 2.154 32.7927 3.38531 33.7894 4.65449C35.2026 6.45405 36.0343 8.53249 36.4534 10.792C36.695 12.0952 36.7856 13.4094 36.6706 14.7341C36.5778 15.7993 36.2869 16.8147 35.9441 17.8193C34.8905 20.9056 33.8467 23.9954 32.7989 27.0836C32.7759 27.1514 32.75 27.2182 32.7252 27.2856C32.7102 27.2849 32.6949 27.2845 32.6799 27.2838Z" fill="white"/>
<path d="M94.0151 22.1859H96.9L91.7687 36.4655H89.5887L87.188 28.3208L84.8317 36.4655H82.6293L77.52 22.1859H80.405L83.7525 32.1755L86.1308 24.1546H88.2672L90.6455 32.2166L94.0151 22.1859Z" fill="white"/>
<path d="M101.505 34.2066H108.12V36.4655H98.9399V22.1855H107.908V24.4448H101.505V28.2996H107.102V30.6002H101.505V34.2063V34.2066Z" fill="white"/>
<path d="M113.732 34.2066H119.34V36.4655H111.18V22.1855H113.732V34.2066Z" fill="white"/>
<path d="M120.36 28.8264C120.36 24.642 123.675 21.1655 127.798 21.1655C130.199 21.1655 132.303 22.3028 133.62 24.0409L131.665 25.5428C130.773 24.3627 129.455 23.6119 127.861 23.6119C125.078 23.6119 122.974 25.994 122.974 28.8264C122.974 31.6589 125.035 34.0195 127.861 34.0195C129.455 34.0195 130.772 33.2684 131.665 32.0882L133.62 33.5902C132.303 35.3283 130.199 36.4655 127.798 36.4655C123.675 36.4655 120.36 33.0112 120.36 28.8264Z" fill="white"/>
<path d="M169.32 36.4655H166.612L165.391 26.87L161.262 34.849H159.064L154.912 26.8904L153.669 36.4655H150.96L152.825 22.1855H155.178L160.151 32.0095L165.102 22.1855H167.455L169.32 36.4655Z" fill="white"/>
<path d="M173.925 34.2066H180.54V36.4655H171.36V22.1855H180.328V24.4448H173.925V28.2996H179.522V30.6002H173.925V34.2063V34.2066Z" fill="white"/>
<path d="M88.74 41.5654V43.9861H84.4561V56.8654H81.8035V43.9861H77.52V41.5654H88.74Z" fill="white"/>
<path d="M89.76 49.2261C89.76 45.0418 92.8813 41.5654 96.9 41.5654C100.898 41.5654 104.04 45.0418 104.04 49.2261C104.04 53.4105 100.898 56.8654 96.9 56.8654C92.8809 56.8654 89.76 53.4108 89.76 49.2261ZM101.551 49.2261C101.551 46.3937 99.5727 44.0117 96.8796 44.0117C94.2073 44.0117 92.2694 46.3937 92.2694 49.2261C92.2694 52.0585 94.2073 54.4191 96.8796 54.4191C99.5724 54.4191 101.551 52.0582 101.551 49.2261Z" fill="white"/>
<path d="M124.44 56.8654H121.882L120.729 46.5845L116.829 55.1334H114.753L110.832 46.6063L109.658 56.8654H107.1L108.862 41.5654H111.084L115.781 52.0911L120.457 41.5654H122.679L124.44 56.8654Z" fill="white"/>
<path d="M126.48 49.2261C126.48 45.0418 129.601 41.5654 133.62 41.5654C137.618 41.5654 140.76 45.0418 140.76 49.2261C140.76 53.4105 137.618 56.8654 133.62 56.8654C129.601 56.8654 126.48 53.4108 126.48 49.2261ZM138.271 49.2261C138.271 46.3937 136.293 44.0117 133.6 44.0117C130.927 44.0117 128.989 46.3937 128.989 49.2261C128.989 52.0585 130.927 54.4191 133.6 54.4191C136.292 54.4191 138.271 52.0582 138.271 49.2261Z" fill="white"/>
<path d="M151.07 56.8654L147.589 51.2916H146.319V56.8654H143.82V41.5654H149.35C152.504 41.5654 153.836 44.0304 153.836 46.4729C153.836 48.6714 152.504 50.892 150.354 51.2029L154.02 56.8654H151.07ZM146.319 43.9861V49.0044H148.838C150.599 49.0044 151.337 47.9162 151.337 46.5172C151.337 45.1182 150.538 43.9861 149.166 43.9861H146.319Z" fill="white"/>
<path d="M164.33 56.8654L160.848 51.2916H159.579V56.8654H157.08V41.5654H162.61C165.764 41.5654 167.096 44.0304 167.096 46.4729C167.096 48.6714 165.764 50.892 163.614 51.2029L167.28 56.8654H164.331H164.33ZM159.578 43.9861V49.0044H162.098C163.859 49.0044 164.596 47.9162 164.596 46.5172C164.596 45.1182 163.798 43.9861 162.425 43.9861H159.578Z" fill="white"/>
<path d="M170.34 49.2261C170.34 45.0418 173.461 41.5654 177.48 41.5654C181.478 41.5654 184.62 45.0418 184.62 49.2261C184.62 53.4105 181.478 56.8654 177.48 56.8654C173.461 56.8654 170.34 53.4108 170.34 49.2261ZM182.131 49.2261C182.131 46.3937 180.153 44.0117 177.46 44.0117C174.787 44.0117 172.849 46.3937 172.849 49.2261C172.849 52.0585 174.787 54.4191 177.46 54.4191C180.152 54.4191 182.131 52.0582 182.131 49.2261Z" fill="white"/>
<path d="M201.267 41.5658H204L199.139 56.8654H197.073L194.799 48.139L192.567 56.8654H190.48L185.64 41.5658H188.373L191.544 52.269L193.797 43.6752H195.821L198.075 52.3129L201.267 41.5658Z" fill="white"/>
<path d="M137.149 36.4657C137.154 33.4496 139.091 30.9154 141.76 30.9154C144.449 30.9154 146.426 33.4496 146.431 36.4657H148.92C148.914 32.0079 145.775 28.3057 141.78 28.3057C137.764 28.3057 134.645 32.0079 134.64 36.4657H137.149Z" fill="white"/>
<path d="M32.13 67.0656C49.8749 67.0656 64.26 52.2388 64.26 33.949C64.26 31.6665 64.0358 29.4381 63.6092 27.2856C57.0569 30.9681 52.0739 36.1598 37.6064 36.1598C22.4192 36.1598 14.0971 28.8343 4.44765 28.8343C3.05796 28.8343 1.68279 29.0433 0.302894 29.3996C0.104471 30.8869 0 32.4049 0 33.9487C0 52.2384 14.3851 67.0656 32.13 67.0656Z" fill="white"/>
</svg>
