<svg width="87" height="92" viewBox="0 0 87 92" fill="none" xmlns="http://www.w3.org/2000/svg">
<path d="M29.3989 44.9375L29.7375 59.5155" stroke="black" stroke-width="2" stroke-linecap="round" stroke-linejoin="round"/>
<path d="M37.09 59.5161L36.7515 40.395" stroke="black" stroke-width="2" stroke-linecap="round" stroke-linejoin="round"/>
<path d="M44.1045 34.6934L44.443 59.5161" stroke="black" stroke-width="2" stroke-linecap="round" stroke-linejoin="round"/>
<path d="M51.7956 59.5161L51.457 40.395" stroke="black" stroke-width="2" stroke-linecap="round" stroke-linejoin="round"/>
<path d="M58.8101 38.6733L59.1476 59.5155" stroke="black" stroke-width="2" stroke-linecap="round" stroke-linejoin="round"/>
<path d="M66.5007 59.5157L66.1621 32.3252" stroke="black" stroke-width="2" stroke-linecap="round" stroke-linejoin="round"/>
<path d="M73.5146 26.0854L73.8532 59.5159" stroke="black" stroke-width="2" stroke-linecap="round" stroke-linejoin="round"/>
<path d="M64.5089 12.9595H74.1921L54.0311 33.1235L44.1046 23.3958L29.3989 38.2424" stroke="black" stroke-width="2" stroke-linecap="round" stroke-linejoin="round"/>
<path d="M74.1919 21.1364V12.9595" stroke="black" stroke-width="2" stroke-linecap="round" stroke-linejoin="round"/>
<path d="M1 74.9736V81.0351C1 86.5391 5.46198 91.0001 10.965 91.0001H76.1067" stroke="black" stroke-width="2" stroke-linecap="round" stroke-linejoin="round"/>
<path d="M19.7855 74.9735V1H85.0367V82.0699C85.0367 87.0022 81.039 90.9999 76.1067 90.9999C71.1744 90.9999 67.1766 87.0022 67.1766 82.0699V74.9735H1" stroke="black" stroke-width="2" stroke-linecap="round" stroke-linejoin="round"/>
</svg>
