<svg width="89" height="113" viewBox="0 0 89 113" fill="none" xmlns="http://www.w3.org/2000/svg">
<path d="M21.8862 95.499H50.9045" stroke="black" stroke-width="2" stroke-linecap="round" stroke-linejoin="round"/>
<path d="M25.2842 101.036H47.5067" stroke="black" stroke-width="2" stroke-linecap="round" stroke-linejoin="round"/>
<path d="M29.4082 106.572H43.3826" stroke="black" stroke-width="2" stroke-linecap="round" stroke-linejoin="round"/>
<path d="M41.289 106.657C41.289 109.36 39.0982 111.551 36.395 111.551C33.6917 111.551 31.501 109.36 31.501 106.657" stroke="black" stroke-width="2" stroke-linecap="round" stroke-linejoin="round"/>
<path d="M49.6831 90.1534C49.6831 90.1534 49.5689 75.0334 58.6178 65.9838C68.4689 52.9784 62.2836 35.1706 54.6086 29.0994C47.3919 22.7992 38.7438 22.1118 36.396 22.1118" stroke="black" stroke-width="2" stroke-linecap="round" stroke-linejoin="round"/>
<path d="M23.4834 61.9106L30.2638 59.0195L36.5624 61.9106L43.4456 59.0195L49.6406 61.9106" stroke="black" stroke-width="2" stroke-linecap="round" stroke-linejoin="round"/>
<path d="M42.8604 88.3436V75.4023L46.578 60.4814" stroke="black" stroke-width="2" stroke-linecap="round" stroke-linejoin="round"/>
<path d="M30.264 88.3441V75.2651L26.5464 60.605" stroke="black" stroke-width="2" stroke-linecap="round" stroke-linejoin="round"/>
<path d="M37.478 1V9.62947" stroke="black" stroke-width="2" stroke-linecap="round" stroke-linejoin="round"/>
<path d="M55.1954 4.75049L52.2412 12.857" stroke="black" stroke-width="2" stroke-linecap="round" stroke-linejoin="round"/>
<path d="M70.5568 14.3354L65.0054 20.9442" stroke="black" stroke-width="2" stroke-linecap="round" stroke-linejoin="round"/>
<path d="M81.7082 28.6021L74.2324 32.9083" stroke="black" stroke-width="2" stroke-linecap="round" stroke-linejoin="round"/>
<path d="M87.3046 45.8281L78.8047 47.3145" stroke="black" stroke-width="2" stroke-linecap="round" stroke-linejoin="round"/>
<path d="M86.667 63.9233L78.1719 62.4126" stroke="black" stroke-width="2" stroke-linecap="round" stroke-linejoin="round"/>
<path d="M79.867 80.7094L72.4058 76.3789" stroke="black" stroke-width="2" stroke-linecap="round" stroke-linejoin="round"/>
<path d="M67.7393 94.1552L62.209 87.5327" stroke="black" stroke-width="2" stroke-linecap="round" stroke-linejoin="round"/>
<path d="M36.5626 22.1133C29.2317 22.2064 21.8879 23.9065 15.5641 29.2782C7.1322 36.4407 7.04152 49.5869 6.95085 54.6639C6.86017 59.7408 -0.392987 64.0025 1.23916 67.266C2.8713 70.5303 5.77208 70.3489 6.49747 70.2583C7.22287 70.1676 9.39906 70.4396 9.39906 72.1624C9.39906 73.8852 8.03894 87.2128 12.754 88.8449C15.08 89.6505 18.201 90.1905 21.441 90.1719C22.5388 90.1654 23.6512 90.095 24.7498 89.9492" stroke="black" stroke-width="2" stroke-linecap="round" stroke-linejoin="round"/>
</svg>
