<svg width="82" height="92" viewBox="0 0 82 92" fill="none" xmlns="http://www.w3.org/2000/svg">
<path d="M40.1498 11.3124C42.9975 11.3124 45.306 9.00386 45.306 6.15618C45.306 3.3085 42.9975 1 40.1498 1C37.3022 1 34.9937 3.3085 34.9937 6.15618C34.9937 9.00386 37.3022 11.3124 40.1498 11.3124Z" stroke="black" stroke-width="2" stroke-linecap="round" stroke-linejoin="round"/>
<path d="M74.8559 30.9266C77.7036 30.9266 80.0121 28.6181 80.0121 25.7704C80.0121 22.9228 77.7036 20.6143 74.8559 20.6143C72.0082 20.6143 69.6997 22.9228 69.6997 25.7704C69.6997 28.6181 72.0082 30.9266 74.8559 30.9266Z" stroke="black" stroke-width="2" stroke-linecap="round" stroke-linejoin="round"/>
<path d="M74.8559 71.6913C77.7036 71.6913 80.0121 69.3828 80.0121 66.5351C80.0121 63.6874 77.7036 61.3789 74.8559 61.3789C72.0082 61.3789 69.6997 63.6874 69.6997 66.5351C69.6997 69.3828 72.0082 71.6913 74.8559 71.6913Z" stroke="black" stroke-width="2" stroke-linecap="round" stroke-linejoin="round"/>
<path d="M6.15618 30.9266C9.00386 30.9266 11.3124 28.6181 11.3124 25.7704C11.3124 22.9228 9.00386 20.6143 6.15618 20.6143C3.3085 20.6143 1 22.9228 1 25.7704C1 28.6181 3.3085 30.9266 6.15618 30.9266Z" stroke="black" stroke-width="2" stroke-linecap="round" stroke-linejoin="round"/>
<path d="M6.15618 71.6913C9.00386 71.6913 11.3124 69.3828 11.3124 66.5351C11.3124 63.6874 9.00386 61.3789 6.15618 61.3789C3.3085 61.3789 1 63.6874 1 66.5351C1 69.3828 3.3085 71.6913 6.15618 71.6913Z" stroke="black" stroke-width="2" stroke-linecap="round" stroke-linejoin="round"/>
<path d="M40.1498 90.7425C42.9975 90.7425 45.306 88.434 45.306 85.5864C45.306 82.7387 42.9975 80.4302 40.1498 80.4302C37.3022 80.4302 34.9937 82.7387 34.9937 85.5864C34.9937 88.434 37.3022 90.7425 40.1498 90.7425Z" stroke="black" stroke-width="2" stroke-linecap="round" stroke-linejoin="round"/>
<path d="M35.6544 83.0671L10.6519 69.0547" stroke="black" stroke-width="2" stroke-linecap="round" stroke-linejoin="round"/>
<path d="M70.3364 69.0161L44.6694 83.1061" stroke="black" stroke-width="2" stroke-linecap="round" stroke-linejoin="round"/>
<path d="M74.856 30.9258V61.3794" stroke="black" stroke-width="2" stroke-linecap="round" stroke-linejoin="round"/>
<path d="M44.6372 8.69141L70.3702 23.2342" stroke="black" stroke-width="2" stroke-linecap="round" stroke-linejoin="round"/>
<path d="M10.6182 23.1953L35.6878 8.73096" stroke="black" stroke-width="2" stroke-linecap="round" stroke-linejoin="round"/>
<path d="M6.15625 61.3794V30.9258" stroke="black" stroke-width="2" stroke-linecap="round" stroke-linejoin="round"/>
<path d="M31.8004 40.987L10.5151 28.356" stroke="black" stroke-width="2" stroke-linecap="round" stroke-linejoin="round"/>
<path d="M48.5381 41.4541L70.169 28.6191" stroke="black" stroke-width="2" stroke-linecap="round" stroke-linejoin="round"/>
<path d="M40.1499 11.3115C40.2801 11.4724 40.1499 34.2769 40.1499 34.2769" stroke="black" stroke-width="2" stroke-linecap="round" stroke-linejoin="round"/>
<path d="M51.3969 43.2795L48.9193 42.956C48.7403 42.4409 48.5143 41.9488 48.2492 41.4826L49.6354 39.3851C49.8211 39.1037 49.7771 38.7293 49.531 38.4986L47.2688 36.381C47.0228 36.1513 46.6466 36.1321 46.3776 36.336L44.3748 37.8582C43.8923 37.6236 43.3869 37.4312 42.8613 37.2867L42.374 34.8349C42.308 34.5027 42.0112 34.2672 41.6733 34.2787L38.5763 34.3812C38.2374 34.3926 37.9569 34.6463 37.9138 34.9824L37.5902 37.4609C37.0762 37.6399 36.585 37.8668 36.1188 38.131L34.0204 36.7448C33.7389 36.5591 33.3646 36.6031 33.1339 36.8492L31.0172 39.1113C30.7865 39.3574 30.7674 39.7345 30.9713 40.0026L32.4925 42.0044C32.2608 42.483 32.0684 42.9837 31.9248 43.5036L29.4654 44.0062C29.1351 44.0741 28.9015 44.3699 28.913 44.7069L29.0154 47.8029C29.0269 48.1399 29.2787 48.4194 29.6128 48.4654L32.1 48.8052C32.2799 49.3203 32.5068 49.8114 32.773 50.2767L31.381 52.3579C31.1924 52.6394 31.2355 53.0156 31.4834 53.2473L33.7456 55.3639C33.8835 55.4941 34.0634 55.5563 34.2415 55.5506C34.3822 55.5458 34.522 55.4979 34.6398 55.408L36.6253 53.881C37.1068 54.1165 37.6123 54.3099 38.1369 54.4554L38.6395 56.9158C38.7074 57.246 39.0033 57.4796 39.3402 57.4691L42.4372 57.3667C42.7742 57.3552 43.0537 57.1034 43.0997 56.7683L43.4386 54.2802C43.9527 54.1012 44.4438 53.8743 44.91 53.6072L46.9912 54.9992C47.1147 55.0815 47.2574 55.1198 47.3981 55.115C47.5762 55.1093 47.7513 55.0346 47.8806 54.8958L49.9972 52.6336C50.2289 52.3866 50.2471 52.0085 50.0403 51.7395L48.5143 49.7549C48.7518 49.2686 48.947 48.7574 49.0935 48.227L51.5443 47.7407C51.8765 47.6746 52.112 47.3779 52.1005 47.0399L51.9981 43.9439C51.9866 43.605 51.7319 43.3245 51.3969 43.2815V43.2795Z" stroke="black" stroke-width="2" stroke-linecap="round" stroke-linejoin="round"/>
<path d="M40.5062 49.4289C42.4704 49.4289 44.0627 47.8366 44.0627 45.8724C44.0627 43.9082 42.4704 42.3159 40.5062 42.3159C38.542 42.3159 36.9497 43.9082 36.9497 45.8724C36.9497 47.8366 38.542 49.4289 40.5062 49.4289Z" stroke="black" stroke-width="2" stroke-linecap="round" stroke-linejoin="round"/>
<path d="M70.5933 64.0051L50.0088 51.7905" stroke="black" stroke-width="2" stroke-linecap="round" stroke-linejoin="round"/>
<path d="M10.5151 64.0058L32.191 51.144" stroke="black" stroke-width="2" stroke-linecap="round" stroke-linejoin="round"/>
<path d="M40.1863 57.4395C40.17 70.1078 40.1499 80.4316 40.1499 80.4316" stroke="black" stroke-width="2" stroke-linecap="round" stroke-linejoin="round"/>
</svg>
