<svg width="117" height="108" viewBox="0 0 117 108" fill="none" xmlns="http://www.w3.org/2000/svg">
<path d="M58.6729 1.29102C90.1767 1.29102 115.754 26.8684 115.754 58.3722V106.998H1.5918V58.3722C1.5918 26.8684 27.1692 1.29102 58.6729 1.29102Z" stroke="white" stroke-width="2" stroke-linecap="round" stroke-linejoin="round"/>
<path d="M58.6738 1.29102V20.3496C60.4874 18.3231 63.1143 17.0412 66.0476 17.0412C71.5166 17.0412 75.9515 21.4749 75.9515 26.945C75.9515 32.4151 71.5177 36.8489 66.0476 36.8489C63.1143 36.8489 60.4874 35.5658 58.6738 33.5393V53.6264H90.3477C88.3211 55.44 87.0381 58.068 87.0381 61.0013C87.0381 66.4703 91.4719 70.9052 96.942 70.9052C102.412 70.9052 106.846 66.4714 106.846 61.0013C106.846 58.068 105.563 55.44 103.536 53.6264H115.544C113.129 24.3249 88.5994 1.29102 58.6738 1.29102Z" stroke="white" stroke-width="2" stroke-linecap="round" stroke-linejoin="round"/>
<path d="M115.545 53.6348H103.546C105.567 55.4484 106.846 58.0719 106.846 61.0018C106.846 66.4708 102.413 70.9057 96.9424 70.9057C91.4723 70.9057 87.0386 66.4719 87.0386 61.0018C87.0386 58.073 88.3182 55.4484 90.3391 53.6348H58.6743V73.7229C56.8607 71.6964 54.2327 70.4134 51.2994 70.4134C45.8304 70.4134 41.3955 74.8471 41.3955 80.3172C41.3955 85.7873 45.8293 90.2211 51.2994 90.2211C54.2327 90.2211 56.8607 88.9381 58.6743 86.9115V107H115.755V58.3738C115.755 56.7765 115.673 55.1994 115.545 53.6359V53.6348Z" stroke="white" stroke-width="2" stroke-linecap="round" stroke-linejoin="round"/>
<path d="M58.6729 106.999V86.9122C56.8593 88.9387 54.2324 90.2206 51.2991 90.2206C45.8302 90.2206 41.3953 85.7868 41.3953 80.3167C41.3953 74.8466 45.829 70.4129 51.2991 70.4129C54.2324 70.4129 56.8593 71.6959 58.6729 73.7224V53.6343H26.9991C29.0256 51.8206 30.3087 49.1937 30.3087 46.2593C30.3087 40.7892 25.8749 36.3555 20.4048 36.3555C14.9347 36.3555 10.501 40.7892 10.501 46.2593C10.501 49.1926 11.784 51.8206 13.8105 53.6343H1.80357C1.67515 55.1978 1.5918 56.7748 1.5918 58.3721V106.998H58.6729V106.999Z" stroke="white" stroke-width="2" stroke-linecap="round" stroke-linejoin="round"/>
<path d="M58.6741 1.29102C28.7485 1.29102 4.21869 24.3249 1.80469 53.6264H13.8037C11.7829 51.8128 10.5032 49.1893 10.5032 46.2605C10.5032 40.7904 14.937 36.3566 20.4071 36.3566C25.8772 36.3566 30.3109 40.7904 30.3109 46.2605C30.3109 49.1893 29.0324 51.8139 27.0104 53.6264H58.6752V33.5382C60.4888 35.5647 63.1168 36.8477 66.0501 36.8477C71.5191 36.8477 75.954 32.414 75.954 26.9439C75.954 21.4738 71.5202 17.0401 66.0501 17.0401C63.1168 17.0401 60.4888 18.3231 58.6752 20.3496L58.6741 1.29102Z" stroke="white" stroke-width="2" stroke-linecap="round" stroke-linejoin="round"/>
</svg>
