<svg width="78" height="81" viewBox="0 0 78 81" fill="none" xmlns="http://www.w3.org/2000/svg">
<path d="M26.6543 6.3338C37.5861 6.62555 46.2113 15.7224 45.9196 26.6542" stroke="white" stroke-width="2" stroke-linecap="round" stroke-linejoin="round"/>
<path d="M26.1266 51.2532C40.0036 51.2532 51.2532 40.0036 51.2532 26.1266C51.2532 12.2496 40.0036 1 26.1266 1C12.2496 1 1 12.2496 1 26.1266C1 40.0036 12.2496 51.2532 26.1266 51.2532Z" stroke="white" stroke-width="2" stroke-linecap="round" stroke-linejoin="round"/>
<path d="M50.2289 49.6564L48.3704 51.4184C46.5909 53.1055 46.5161 55.9157 48.2032 57.6951L66.5934 77.092C68.2805 78.8714 71.0906 78.9463 72.8701 77.2592L74.7286 75.4971C76.508 73.8101 76.5829 70.9999 74.8958 69.2205L56.5055 49.8236C54.8185 48.0441 52.0083 47.9693 50.2289 49.6564Z" stroke="white" stroke-width="2" stroke-linecap="round" stroke-linejoin="round"/>
<path d="M40.6416 46.6564L46.8736 53.2296" stroke="white" stroke-width="2" stroke-linecap="round" stroke-linejoin="round"/>
<path d="M45.8545 41.7143L52.0865 48.2863" stroke="white" stroke-width="2" stroke-linecap="round" stroke-linejoin="round"/>
<path d="M32.4347 20.6864C32.4347 17.6757 29.9944 15.2354 26.9836 15.2354H25.2704C22.2597 15.2354 19.8193 17.6757 19.8193 20.6864C19.8193 23.6972 22.2597 26.1375 25.2704 26.1375L26.9836 26.1343C29.9944 26.1343 32.4347 28.5746 32.4347 31.5854C32.4347 34.5961 29.9944 37.0364 26.9836 37.0364H25.2704C22.2597 37.0364 19.8193 34.5961 19.8193 31.5854" stroke="white" stroke-width="2" stroke-linecap="round" stroke-linejoin="round"/>
<path d="M26.3154 15.175V10.9348" stroke="white" stroke-width="2" stroke-linecap="round" stroke-linejoin="round"/>
<path d="M26.3154 41.3184V37.0793" stroke="white" stroke-width="2" stroke-linecap="round" stroke-linejoin="round"/>
</svg>
