<svg width="91" height="77" viewBox="0 0 91 77" fill="none" xmlns="http://www.w3.org/2000/svg">
<path d="M46.5275 42.762L52.6389 36.6506C52.6389 36.6506 54.3915 35.0037 54.1537 32.4909C54.1195 32.1318 54.0449 31.7549 53.9189 31.3632C52.9505 28.3499 48.4418 28.6848 46.5112 30.8323C44.5806 28.6848 40.0727 28.3499 39.1035 31.3632C38.9776 31.7557 38.9029 32.1318 38.8687 32.4909C38.6317 35.0045 40.3836 36.6506 40.3836 36.6506L46.4949 42.762L46.5089 42.7759L46.5275 42.762Z" stroke="white" stroke-width="2" stroke-linecap="round" stroke-linejoin="round"/>
<path d="M33.1507 12.663C15.3942 12.663 1 24.9595 1 40.1286C1 49.2292 6.18255 57.2952 14.1631 62.2928L8.86009 76L25.5907 66.8279C28.0156 67.3269 30.5463 67.5935 33.15 67.5935C50.9065 67.5935 65.3007 55.297 65.3007 40.1279C65.3007 24.9587 50.9073 12.663 33.1507 12.663Z" stroke="white" stroke-width="2" stroke-linecap="round" stroke-linejoin="round"/>
<path d="M89.4282 11.8889V5.36646C89.4282 2.96483 87.4634 1 85.0617 1H33.4236C31.022 1 29.0571 2.96483 29.0571 5.36646V49.2525C29.0571 51.6542 31.022 53.619 33.4236 53.619H60.0529L80.4761 67.5928L76.1811 53.619H85.0617C87.4634 53.619 89.4282 51.6542 89.4282 49.2525V20.5053" stroke="white" stroke-width="2" stroke-linecap="round" stroke-linejoin="round"/>
</svg>
