<svg width="95" height="81" viewBox="0 0 95 81" fill="none" xmlns="http://www.w3.org/2000/svg">
<path d="M18.5884 80H75.8255" stroke="white" stroke-width="2" stroke-linecap="round" stroke-linejoin="round"/>
<path d="M47.2075 67.797V79.9999" stroke="white" stroke-width="2" stroke-linecap="round" stroke-linejoin="round"/>
<path d="M90.856 1H3.55862C2.14554 1 1 2.14554 1 3.55862V65.2384C1 66.6515 2.14554 67.797 3.55862 67.797H90.856C92.2691 67.797 93.4146 66.6515 93.4146 65.2384V3.55862C93.4146 2.14554 92.2691 1 90.856 1Z" stroke="white" stroke-width="2" stroke-linecap="round" stroke-linejoin="round"/>
<path d="M84.5232 8.28485H63.7779C63.1546 8.28485 62.6494 8.79008 62.6494 9.4133V59.3837C62.6494 60.007 63.1546 60.5122 63.7779 60.5122H84.5232C85.1465 60.5122 85.6517 60.007 85.6517 59.3837V9.4133C85.6517 8.79008 85.1465 8.28485 84.5232 8.28485Z" stroke="white" stroke-width="2" stroke-linecap="round" stroke-linejoin="round"/>
<path d="M62.6494 48.4927L72.4434 37.6837L78.636 44.1298" stroke="white" stroke-width="2" stroke-linecap="round" stroke-linejoin="round"/>
<path d="M75.8252 48.4927L80.7385 41.7389L85.6506 48.4927" stroke="white" stroke-width="2" stroke-linecap="round" stroke-linejoin="round"/>
<path d="M78.371 35.212C79.9901 35.212 81.3026 33.8995 81.3026 32.2804C81.3026 30.6614 79.9901 29.3489 78.371 29.3489C76.752 29.3489 75.4395 30.6614 75.4395 32.2804C75.4395 33.8995 76.752 35.212 78.371 35.212Z" stroke="white" stroke-width="2" stroke-linecap="round" stroke-linejoin="round"/>
<path d="M65.4434 15.0953H82.8565" stroke="white" stroke-width="2" stroke-linecap="round" stroke-linejoin="round"/>
<path d="M68.7871 18.5483H79.514" stroke="white" stroke-width="2" stroke-linecap="round" stroke-linejoin="round"/>
</svg>
