<svg width="88" height="81" viewBox="0 0 88 81" fill="none" xmlns="http://www.w3.org/2000/svg">
<path d="M81.805 1H5.63898C3.07694 1 1 3.07694 1 5.63898V60.1496C1 62.7116 3.07694 64.7885 5.63898 64.7885H81.805C84.367 64.7885 86.444 62.7116 86.444 60.1496V5.63898C86.444 3.07694 84.367 1 81.805 1Z" stroke="white" stroke-width="2" stroke-linecap="round" stroke-linejoin="round"/>
<path d="M40.6462 19.7094L57.1436 30.0321C59.5066 31.5104 59.4412 34.9739 57.0246 36.3625L39.9914 46.1498C37.4921 47.586 34.3851 45.7318 34.4618 42.8508L34.9977 22.7408C35.074 19.8851 38.2248 18.1943 40.6462 19.7094Z" stroke="white" stroke-width="2" stroke-linecap="round" stroke-linejoin="round"/>
<path d="M17.1606 80C19.8209 80 21.9775 77.8434 21.9775 75.1831C21.9775 72.5228 19.8209 70.3662 17.1606 70.3662C14.5003 70.3662 12.3438 72.5228 12.3438 75.1831C12.3438 77.8434 14.5003 80 17.1606 80Z" stroke="white" stroke-width="2" stroke-linecap="round" stroke-linejoin="round"/>
<path d="M1 75.1832H12.3436" stroke="white" stroke-width="2" stroke-linecap="round" stroke-linejoin="round"/>
<path d="M21.9775 75.1832H86.4442" stroke="white" stroke-width="2" stroke-linecap="round" stroke-linejoin="round"/>
</svg>
