<svg width="115" height="77" viewBox="0 0 115 77" fill="none" xmlns="http://www.w3.org/2000/svg">
<path d="M90.6761 26.4133C94.812 26.4133 98.1648 23.0605 98.1648 18.9246C98.1648 14.7888 94.812 11.436 90.6761 11.436C86.5403 11.436 83.1875 14.7888 83.1875 18.9246C83.1875 23.0605 86.5403 26.4133 90.6761 26.4133Z" stroke="white" stroke-width="2" stroke-miterlimit="10"/>
<path d="M113.503 1H19.5078V65.5955H113.503V1Z" stroke="white" stroke-width="2" stroke-miterlimit="10"/>
<path d="M19.9229 52.8236L55.7864 21.5686L71.3002 41.4395L82.8043 32.0266L107.73 65.5955" stroke="white" stroke-width="2" stroke-miterlimit="10"/>
<path d="M24.1032 41.1314C24.1032 41.1314 30.0726 33.5535 39.6294 37.7273C45.9338 40.5671 48.5404 47.3014 46.356 54.5693C44.9184 59.3516 42.0181 63.1904 38.1601 66.2193C33.9038 69.561 29.395 72.5879 24.9611 75.7032C24.5859 75.9671 23.7596 76.113 23.4554 75.8922C17.1376 71.299 9.98097 67.702 5.21312 61.246C2.10076 57.0329 0.291702 52.3629 1.26293 47.0509C2.17754 42.0518 5.24287 38.6745 10.0683 37.1035C14.8381 35.5507 19.1453 36.7062 22.8546 40.046C23.2154 40.3713 24.1032 41.1314 24.1032 41.1314Z" fill="black" stroke="white" stroke-width="2" stroke-miterlimit="10"/>
</svg>
