<svg width="104" height="77" viewBox="0 0 104 77" fill="none" xmlns="http://www.w3.org/2000/svg">
<path d="M68.752 8.66425C78.094 8.91358 86.6507 15.4636 88.1864 23.1422" stroke="white" stroke-width="2" stroke-linecap="round" stroke-linejoin="round"/>
<path d="M58.1644 75.4339C56.0457 75.8061 53.8668 76 51.6409 76C30.9453 76 14.168 59.2226 14.168 38.5271C14.168 17.8315 30.9453 1.05292 51.6409 1.05292C53.8656 1.05292 56.0445 1.24684 58.1632 1.61903" stroke="white" stroke-width="2" stroke-linecap="round" stroke-linejoin="round"/>
<path d="M44.3665 75.5387C42.4466 75.8422 40.4784 76 38.4729 76C17.7774 76 1 59.2226 1 38.5271C1 17.8315 17.7774 1.05292 38.4729 1.05292C40.7193 1.05292 42.9187 1.25045 45.0555 1.62866" stroke="white" stroke-width="2" stroke-linecap="round" stroke-linejoin="round"/>
<path d="M64.6886 75.9338C85.381 75.9338 102.155 59.1593 102.155 38.4669C102.155 17.7745 85.381 1 64.6886 1C43.9962 1 27.2217 17.7745 27.2217 38.4669C27.2217 59.1593 43.9962 75.9338 64.6886 75.9338Z" stroke="white" stroke-width="2" stroke-linecap="round" stroke-linejoin="round"/>
<path d="M58.3519 22.4485L77.8837 34.6539C80.6814 36.4019 80.6039 40.497 77.7429 42.1389L57.5766 53.7113C54.6176 55.4094 50.9391 53.2171 51.03 49.8106L51.6644 26.0328C51.7547 22.6563 55.4851 20.6571 58.3519 22.4485Z" stroke="white" stroke-width="2" stroke-linecap="round" stroke-linejoin="round"/>
</svg>
