<svg width="68" height="76" viewBox="0 0 68 76" fill="none" xmlns="http://www.w3.org/2000/svg">
<path d="M15.8379 21.9933C22.1383 16.0196 32.0881 16.2848 38.0618 22.5852" stroke="white" stroke-width="2" stroke-linecap="round" stroke-linejoin="round"/>
<path d="M26.6538 53.3504C37.6712 53.3504 46.6026 44.419 46.6026 33.4016C46.6026 22.3842 37.6712 13.4529 26.6538 13.4529C15.6364 13.4529 6.70508 22.3842 6.70508 33.4016C6.70508 44.419 15.6364 53.3504 26.6538 53.3504Z" stroke="white" stroke-width="2" stroke-linecap="round" stroke-linejoin="round"/>
<path d="M45.3666 51.6598L43.891 53.0589C42.4782 54.3983 42.4188 56.6294 43.7582 58.0421L58.3589 73.442C59.6983 74.8547 61.9293 74.9141 63.3421 73.5747L64.8177 72.1757C66.2305 70.8362 66.2899 68.6052 64.9505 67.1925L50.3498 51.7926C49.0104 50.3799 46.7794 50.3204 45.3666 51.6598Z" stroke="white" stroke-width="2" stroke-linecap="round" stroke-linejoin="round"/>
<path d="M38.1787 49.7017L42.8339 54.6271" stroke="white" stroke-width="2" stroke-linecap="round" stroke-linejoin="round"/>
<path d="M42.3174 45.7775L46.8905 50.6209" stroke="white" stroke-width="2" stroke-linecap="round" stroke-linejoin="round"/>
<path d="M40.3063 51.9988V66.4756C40.3063 69.6116 37.7403 72.1768 34.6051 72.1768H6.70121C3.56529 72.1768 1 69.6108 1 66.4756V6.70121C1 3.56602 3.56602 1 6.70121 1H34.6044C37.7403 1 40.3056 3.56602 40.3056 6.70121V18.6926" stroke="white" stroke-width="2" stroke-linecap="round" stroke-linejoin="round"/>
<path d="M14.2803 5.33289H27.0269" stroke="white" stroke-width="2" stroke-linecap="round" stroke-linejoin="round"/>
</svg>
