<svg width="73" height="77" viewBox="0 0 73 77" fill="none" xmlns="http://www.w3.org/2000/svg">
<path d="M26.4336 65.7633H46.3212" stroke="white" stroke-width="2" stroke-linecap="round" stroke-linejoin="round"/>
<path d="M28.8174 69.5576H44.0467" stroke="white" stroke-width="2" stroke-linecap="round" stroke-linejoin="round"/>
<path d="M41.9924 69.9189C41.9924 73.2776 39.4969 76 36.4181 76C33.3393 76 30.8438 73.2776 30.8438 69.9189" stroke="white" stroke-width="2" stroke-linecap="round" stroke-linejoin="round"/>
<path d="M48.859 20.2581C43.9135 15.9405 37.9865 15.4694 36.377 15.4694C34.8857 15.4694 28.8405 15.9405 23.895 20.2581C18.6352 24.4188 14.3961 36.6227 21.1472 45.5359C28.1015 54.3376 27.2703 62.1002 27.2703 62.1002H45.4827C45.4827 62.1002 45.0259 53.5568 51.6058 45.5359C58.3569 36.6227 54.1178 24.4188 48.858 20.2581H48.859Z" stroke="white" stroke-width="2" stroke-linecap="round" stroke-linejoin="round"/>
<path d="M36.377 62.1002H37.7114H45.4832" stroke="white" stroke-width="2" stroke-linecap="round" stroke-linejoin="round"/>
<path d="M37.6074 1V6.91377" stroke="white" stroke-width="2" stroke-linecap="round" stroke-linejoin="round"/>
<path d="M49.7497 3.57062L47.7246 9.12583" stroke="white" stroke-width="2" stroke-linecap="round" stroke-linejoin="round"/>
<path d="M60.2763 10.1393L56.4717 14.6683" stroke="white" stroke-width="2" stroke-linecap="round" stroke-linejoin="round"/>
<path d="M67.9187 19.9163L62.7959 22.8679" stroke="white" stroke-width="2" stroke-linecap="round" stroke-linejoin="round"/>
<path d="M71.7548 31.7219L65.9297 32.7406" stroke="white" stroke-width="2" stroke-linecap="round" stroke-linejoin="round"/>
<path d="M71.3177 44.1235L65.4961 43.0881" stroke="white" stroke-width="2" stroke-linecap="round" stroke-linejoin="round"/>
<path d="M66.6576 55.6277L61.5439 52.6599" stroke="white" stroke-width="2" stroke-linecap="round" stroke-linejoin="round"/>
<path d="M58.3456 64.8424L54.5557 60.3038" stroke="white" stroke-width="2" stroke-linecap="round" stroke-linejoin="round"/>
<path d="M18.418 60.4622L14.6006 64.9783" stroke="white" stroke-width="2" stroke-linecap="round" stroke-linejoin="round"/>
<path d="M11.362 52.8691L6.22949 55.8059" stroke="white" stroke-width="2" stroke-linecap="round" stroke-linejoin="round"/>
<path d="M7.335 43.3218L1.50781 44.3222" stroke="white" stroke-width="2" stroke-linecap="round" stroke-linejoin="round"/>
<path d="M6.81853 32.9708L1 31.9171" stroke="white" stroke-width="2" stroke-linecap="round" stroke-linejoin="round"/>
<path d="M9.87603 23.0685L4.76953 20.0854" stroke="white" stroke-width="2" stroke-linecap="round" stroke-linejoin="round"/>
<path d="M16.1395 14.8119L12.3623 10.2626" stroke="white" stroke-width="2" stroke-linecap="round" stroke-linejoin="round"/>
<path d="M24.8499 9.1976L22.9756 3.95715" stroke="white" stroke-width="2" stroke-linecap="round" stroke-linejoin="round"/>
<path d="M47.9166 32.0913L45.3232 31.665C45.153 31.118 44.9325 30.5924 44.6697 30.0932L46.1997 27.9357C46.4044 27.6459 46.3713 27.2512 46.1208 27.0006L43.8166 24.6954C43.566 24.4453 43.1713 24.4122 42.8814 24.6165L40.7234 26.147C40.2243 25.8837 39.6997 25.6636 39.1522 25.4935L38.7254 22.8985C38.6678 22.5471 38.3642 22.2894 38.0077 22.2894H34.7485C34.392 22.2894 34.0885 22.5466 34.0309 22.8985L33.6041 25.4935C33.0571 25.6642 32.533 25.8847 32.0333 26.147L29.8753 24.6165C29.5855 24.4112 29.1908 24.4443 28.9402 24.6954L26.636 26.9996C26.3849 27.2507 26.3518 27.6459 26.5571 27.9347L28.0871 30.0922C27.8263 30.5873 27.6078 31.1073 27.4382 31.6487L24.8355 32.0913C24.4861 32.1514 24.2305 32.4545 24.2305 32.809V36.0671C24.2305 36.4221 24.4861 36.7247 24.8355 36.7843L27.4387 37.2274C27.6098 37.7744 27.8314 38.299 28.0952 38.7976L26.5601 40.9373C26.3523 41.2271 26.3849 41.6244 26.637 41.876L28.9412 44.1802C29.0823 44.3212 29.2682 44.3936 29.4561 44.3936C29.6038 44.3936 29.7526 44.3482 29.8799 44.2571L32.0201 42.7209C32.5187 42.9848 33.0433 43.2058 33.5893 43.377L34.0324 45.9806C34.092 46.3305 34.3951 46.5862 34.7496 46.5862H38.0087C38.3637 46.5862 38.6663 46.3305 38.7259 45.9806L39.169 43.377C39.716 43.2063 40.2406 42.9848 40.7387 42.7209L42.8784 44.2571C43.0057 44.3482 43.1544 44.3936 43.3021 44.3936C43.4896 44.3936 43.676 44.3212 43.8171 44.1802L46.1213 41.876C46.3734 41.6244 46.406 41.2271 46.1982 40.9373L44.6631 38.7976C44.9294 38.2944 45.1525 37.7642 45.3247 37.2111L47.9182 36.7848C48.2696 36.7272 48.5273 36.4226 48.5273 36.0671V32.809C48.5273 32.4524 48.2696 32.1489 47.9182 32.0913H47.9166Z" stroke="white" stroke-width="2" stroke-linecap="round" stroke-linejoin="round"/>
<path d="M36.3765 38.4323C38.5826 38.4323 40.3711 36.6439 40.3711 34.4377C40.3711 32.2315 38.5826 30.4431 36.3765 30.4431C34.1703 30.4431 32.3818 32.2315 32.3818 34.4377C32.3818 36.6439 34.1703 38.4323 36.3765 38.4323Z" stroke="white" stroke-width="2" stroke-linecap="round" stroke-linejoin="round"/>
</svg>
