<svg width="106" height="77" viewBox="0 0 106 77" fill="none" xmlns="http://www.w3.org/2000/svg">
<path d="M21.8857 75.9966L80.5697 45.8181C80.5697 45.8181 84.3043 43.6322 83.485 40.1704C83.485 40.1704 82.7564 37.8024 81.2991 37.3466" stroke="white" stroke-width="2" stroke-linecap="round" stroke-linejoin="round"/>
<path d="M76.5166 39.3965C76.5166 39.3965 81.0714 38.1667 81.8453 35.2514C82.6193 32.336 81.9822 29.6943 79.181 28.1002" stroke="white" stroke-width="2" stroke-linecap="round" stroke-linejoin="round"/>
<path d="M72.2354 31.061L78.6579 28.1003C78.6579 28.1003 81.2542 23.5002 77.2913 20.2659" stroke="white" stroke-width="2" stroke-linecap="round" stroke-linejoin="round"/>
<path d="M66.0856 23.9098L76.7892 19.993C76.7892 19.993 80.2812 18.5811 79.4921 14.8464C78.1104 10.9297 74.6889 11.1118 72.8472 11.294L64.264 13.7082C64.264 13.7082 61.1665 14.6643 54.6533 14.8011" stroke="white" stroke-width="2" stroke-linecap="round" stroke-linejoin="round"/>
<path d="M70.5946 11.2167L66.9053 1L45.7256 4.96296C45.7256 4.96296 46.3636 9.42623 51.2365 10.4285L58.8426 10.4738L58.9341 13.7988" stroke="white" stroke-width="2" stroke-linecap="round" stroke-linejoin="round"/>
<path d="M56.0195 2.3666L42.7203 1L37.9834 10.656" stroke="white" stroke-width="2" stroke-linecap="round" stroke-linejoin="round"/>
<path d="M31.5161 8.92503L47.4116 15.1192C47.4116 15.1192 50.1448 17.2598 48.9604 20.2658C47.7759 23.2718 45.9997 23.5454 44.4971 23.9098L28.009 17.9431C28.009 17.9431 26.0052 15.4835 27.5993 12.0217C27.5993 12.0217 28.7838 9.42534 31.5161 8.92419V8.92503Z" stroke="white" stroke-width="2" stroke-linecap="round" stroke-linejoin="round"/>
<path d="M27.188 18.0347C27.188 18.0347 24.4095 20.631 24.956 23.0452C24.956 23.0452 25.0928 25.7784 26.5954 27.0535C26.5954 27.0535 39.0752 32.2916 44.4501 32.5644C44.4501 32.5644 46.7275 31.7905 47.0012 29.1941C47.2748 26.5977 45.8595 24.9088 45.3617 24.3665" stroke="white" stroke-width="2" stroke-linecap="round" stroke-linejoin="round"/>
<path d="M45.2253 32.8372C45.2253 33.0194 47.867 38.1206 41.0802 40.5802C41.0802 40.5802 31.2421 41.3541 25.3669 36.0254C25.3669 36.0254 21.5861 31.8803 25.5944 27.2349" stroke="white" stroke-width="2" stroke-linecap="round" stroke-linejoin="round"/>
<path d="M25.5036 37.073C25.5036 37.073 23.0944 39.4872 23.7526 42.1289C24.4107 44.7706 26.7334 45.6361 27.1892 45.7267C27.645 45.8174 34.2497 46.6375 38.1211 46.0004C38.1211 46.0004 41.4914 44.9528 41.1271 41.2634" stroke="white" stroke-width="2" stroke-linecap="round" stroke-linejoin="round"/>
<path d="M24.886 45.4993L1.79492 57.002" stroke="white" stroke-width="2" stroke-linecap="round" stroke-linejoin="round"/>
<path d="M56.0029 59.108L85.9581 75.9999" stroke="white" stroke-width="2" stroke-linecap="round" stroke-linejoin="round"/>
<path d="M104.204 57.3428L80.5693 45.8182" stroke="white" stroke-width="2" stroke-linecap="round" stroke-linejoin="round"/>
</svg>
