<svg width="78" height="78" viewBox="0 0 78 78" fill="none" xmlns="http://www.w3.org/2000/svg">
<path d="M30.7432 1.83667V33.1261" stroke="white" stroke-width="2" stroke-linecap="round" stroke-linejoin="round"/>
<path d="M30.7432 16.5444C32.884 14.2681 35.8034 14.0522 41.0587 15.9012C46.314 17.7502 49.6227 15.025 49.6227 15.025L46.314 9.47798L49.6227 2.09349C49.6227 2.09349 45.8271 4.5377 40.9619 2.09349C36.096 -0.350718 31.6193 1.88761 30.7439 3.15229" stroke="white" stroke-width="2" stroke-linecap="round" stroke-linejoin="round"/>
<path d="M58.6371 76.3339L33.4032 34.7552C31.7097 32.8118 30.0441 32.3652 28.4327 34.7552L1 76.3339" stroke="white" stroke-width="2" stroke-linecap="round" stroke-linejoin="round"/>
<path d="M21.0674 46.556L24.8065 52.4916L28.0177 48.1125L30.7428 52.4916L33.8565 47.6257L36.8735 52.4916L40.6876 46.7596" stroke="white" stroke-width="2" stroke-linecap="round" stroke-linejoin="round"/>
<path d="M76.2863 76.3339L58.0878 47.3339C56.8564 45.9415 55.6235 45.6118 54.3898 47.3339L47.4844 57.9598" stroke="white" stroke-width="2" stroke-linecap="round" stroke-linejoin="round"/>
<path d="M63.787 56.4552L60.8134 61.2484L58.1857 57.4056L55.9474 61.2484L53.8066 57.4056L50.1875 62.4117" stroke="white" stroke-width="2" stroke-linecap="round" stroke-linejoin="round"/>
</svg>
