<svg width="68" height="78" viewBox="0 0 68 78" fill="none" xmlns="http://www.w3.org/2000/svg">
<path d="M41.6315 57.3951C43.0938 56.939 44.4966 56.3461 45.8302 55.6407L51.5531 59.7489C51.8936 59.9924 52.2916 60.1138 52.6866 60.1138C53.1883 60.1138 53.6863 59.9203 54.0636 59.543L60.2263 53.3802C60.9009 52.7072 60.9877 51.645 60.4316 50.8704L56.3255 45.1491C57.0376 43.8029 57.6349 42.3847 58.0953 40.9062L65.0319 39.766C65.972 39.6116 66.6612 38.7973 66.6612 37.8462V29.1324C66.6612 28.1791 65.972 27.367 65.0319 27.2133L58.0953 26.0731C57.6408 24.6093 57.0508 23.2044 56.3476 21.8693L60.4397 16.1001C60.9877 15.3248 60.8987 14.2692 60.2278 13.5984L54.0651 7.43342C53.395 6.76478 52.3401 6.67577 51.5634 7.22305L45.7912 11.3166C44.4561 10.6126 43.0534 10.0242 41.5896 9.56883L40.4487 2.62858C40.2942 1.68851 39.4821 1 38.5288 1H29.8129C28.8595 1 28.0475 1.68851 27.893 2.62858L26.7521 9.56883C25.2897 10.0249 23.887 10.6156 22.5512 11.3166L16.7798 7.22305C16.0045 6.67356 14.9489 6.76257 14.278 7.43342L8.11532 13.5961C7.44446 14.267 7.35546 15.3248 7.90347 16.0979L11.9955 21.8671C11.2982 23.1919 10.7134 24.5814 10.2595 26.0297L3.29871 27.2133C2.36378 27.3737 1.67969 28.1835 1.67969 29.1324V37.8462C1.67969 38.7951 2.36378 39.605 3.29871 39.7638L10.2603 40.9496C10.7171 42.4134 11.31 43.8162 12.0161 45.1491L7.91009 50.8704C7.35399 51.6457 7.44079 52.7072 8.11532 53.3802L14.278 59.543C14.6547 59.9211 15.1534 60.1138 15.6551 60.1138C16.0501 60.1138 16.4473 59.9924 16.7886 59.7489L22.5129 55.6407C23.8458 56.3461 25.2486 56.9368 26.7102 57.3951" stroke="white" stroke-width="2" stroke-linecap="round" stroke-linejoin="round"/>
<path d="M34.1701 44.5474C40.2777 44.5474 45.2289 39.5962 45.2289 33.4886C45.2289 27.381 40.2777 22.4298 34.1701 22.4298C28.0625 22.4298 23.1113 27.381 23.1113 33.4886C23.1113 39.5962 28.0625 44.5474 34.1701 44.5474Z" stroke="white" stroke-width="2" stroke-linecap="round" stroke-linejoin="round"/>
<path d="M44.0146 60.8318V66.0919H24.3252V60.8318" stroke="white" stroke-width="2" stroke-linecap="round" stroke-linejoin="round"/>
<path d="M26.5557 71.3698H41.7867" stroke="white" stroke-width="2" stroke-linecap="round" stroke-linejoin="round"/>
<path d="M29.6279 76.1121H38.7124" stroke="white" stroke-width="2" stroke-linecap="round" stroke-linejoin="round"/>
<path d="M34.1699 13.6543V19.1984" stroke="white" stroke-width="2" stroke-linecap="round" stroke-linejoin="round"/>
<path d="M34.1699 50.0099V59.0782" stroke="white" stroke-width="2" stroke-linecap="round" stroke-linejoin="round"/>
<path d="M13.2207 34.6045H18.7648" stroke="white" stroke-width="2" stroke-linecap="round" stroke-linejoin="round"/>
<path d="M49.5771 34.6045H55.1213" stroke="white" stroke-width="2" stroke-linecap="round" stroke-linejoin="round"/>
<path d="M19.3564 49.4185L23.2771 45.4978" stroke="white" stroke-width="2" stroke-linecap="round" stroke-linejoin="round"/>
<path d="M45.0635 23.7105L48.9841 19.7898" stroke="white" stroke-width="2" stroke-linecap="round" stroke-linejoin="round"/>
<path d="M19.3564 19.7898L23.2771 23.7105" stroke="white" stroke-width="2" stroke-linecap="round" stroke-linejoin="round"/>
<path d="M45.0635 45.4978L48.9841 49.4185" stroke="white" stroke-width="2" stroke-linecap="round" stroke-linejoin="round"/>
</svg>
