<svg width="78" height="77" viewBox="0 0 78 77" fill="none" xmlns="http://www.w3.org/2000/svg">
<path d="M30.9171 54.0427H23.3643V46.5695" stroke="white" stroke-width="2" stroke-linecap="round" stroke-linejoin="round"/>
<path d="M54.569 46.49V54.0428H47.0957" stroke="white" stroke-width="2" stroke-linecap="round" stroke-linejoin="round"/>
<path d="M23.4043 30.3297V22.9351H30.8776" stroke="white" stroke-width="2" stroke-linecap="round" stroke-linejoin="round"/>
<path d="M47.0557 22.9351H54.6085V30.2519" stroke="white" stroke-width="2" stroke-linecap="round" stroke-linejoin="round"/>
<path d="M23.4043 22.9351L32.5595 32.0912" stroke="white" stroke-width="2" stroke-linecap="round" stroke-linejoin="round"/>
<path d="M54.6087 22.9351L44.1758 33.3671" stroke="white" stroke-width="2" stroke-linecap="round" stroke-linejoin="round"/>
<path d="M54.5683 54.0427L44.8789 44.3524" stroke="white" stroke-width="2" stroke-linecap="round" stroke-linejoin="round"/>
<path d="M23.3643 54.0428L32.6796 44.7275" stroke="white" stroke-width="2" stroke-linecap="round" stroke-linejoin="round"/>
<path d="M74.5947 31.2471L66.591 29.9319C66.066 28.2435 65.3855 26.6219 64.5743 25.0808L69.2964 18.4233C69.9293 17.5288 69.826 16.3115 69.0522 15.5368L61.942 8.42389C61.1692 7.65196 59.9509 7.54952 59.0555 8.1806L52.3953 12.9037C50.8542 12.0915 49.2363 11.4128 47.547 10.8869L46.2308 2.87952C46.0525 1.7948 45.1159 1 44.0157 1H33.9586C32.8583 1 31.9218 1.79388 31.7434 2.87952L30.4264 10.8869C28.7389 11.4128 27.1201 12.0942 25.5799 12.9037L18.9206 8.1806C18.0261 7.54678 16.8087 7.64922 16.0341 8.42389L8.92389 15.5341C8.14922 16.3087 8.04678 17.5288 8.67969 18.4206L13.4018 25.078C12.5979 26.6063 11.922 28.2097 11.3988 29.8806L3.36763 31.2462C2.28931 31.4318 1.5 32.3656 1.5 33.4613V43.5157C1.5 44.6104 2.28931 45.5452 3.36763 45.7281L11.4007 47.0964C11.9284 48.7847 12.6125 50.4036 13.4265 51.942L8.68884 58.5436C8.04769 59.4381 8.14739 60.6637 8.92572 61.4402L16.0359 68.5513C16.4703 68.9876 17.0456 69.2098 17.6246 69.2098C18.081 69.2098 18.5392 69.0699 18.9325 68.7891L25.5369 64.0487C27.0752 64.8627 28.6941 65.544 30.3797 66.0727L31.7462 74.1075C31.93 75.1877 32.8647 75.977 33.9595 75.977H44.0166C45.1114 75.977 46.0461 75.1877 46.2299 74.1075L47.5964 66.0727C49.2838 65.5468 50.9027 64.8627 52.441 64.0487L59.0445 68.7891C59.4378 69.0699 59.896 69.2098 60.3524 69.2098C60.9314 69.2098 61.5057 68.9866 61.9411 68.5513L69.0513 61.4402C69.8296 60.6637 69.9293 59.4381 69.2882 58.5436L64.5505 51.942C65.3727 50.389 66.0614 48.7527 66.5928 47.0461L74.5966 45.7308C75.6813 45.5525 76.477 44.6132 76.477 43.5157V33.4613C76.477 32.3611 75.6813 31.4245 74.5966 31.2462L74.5947 31.2471Z" stroke="white" stroke-width="2" stroke-linecap="round" stroke-linejoin="round"/>
</svg>
